<svg width="105" height="24" viewBox="0 0 105 24" fill="none" xmlns="http://www.w3.org/2000/svg">
<mask id="path-1-outside-1_1_3" maskUnits="userSpaceOnUse" x="-2" y="-2" width="109" height="28" fill="black">
<rect fill="white" x="-2" y="-2" width="109" height="28"/>
<path d="M17.648 0.695999V23H14.736V12.888H3.376V23H0.464V0.695999H3.376V10.488H14.736V0.695999H17.648ZM27.1323 3.064V10.52H35.2603V12.92H27.1323V20.6H36.2203V23H24.2203V0.664H36.2203V3.064H27.1323ZM45.1385 20.632H52.9465V23H42.2265V0.695999H45.1385V20.632ZM60.551 20.632H68.359V23H57.639V0.695999H60.551V20.632ZM83.1635 23.224C81.0942 23.224 79.2062 22.744 77.4995 21.784C75.7928 20.8027 74.4382 19.448 73.4355 17.72C72.4542 15.9707 71.9635 14.008 71.9635 11.832C71.9635 9.656 72.4542 7.704 73.4355 5.976C74.4382 4.22667 75.7928 2.872 77.4995 1.912C79.2062 0.930665 81.0942 0.439999 83.1635 0.439999C85.2542 0.439999 87.1528 0.930665 88.8595 1.912C90.5662 2.872 91.9102 4.216 92.8915 5.944C93.8728 7.672 94.3635 9.63467 94.3635 11.832C94.3635 14.0293 93.8728 15.992 92.8915 17.72C91.9102 19.448 90.5662 20.8027 88.8595 21.784C87.1528 22.744 85.2542 23.224 83.1635 23.224ZM83.1635 20.696C84.7208 20.696 86.1182 20.3333 87.3555 19.608C88.6142 18.8827 89.5955 17.848 90.2995 16.504C91.0248 15.16 91.3875 13.6027 91.3875 11.832C91.3875 10.04 91.0248 8.48267 90.2995 7.16C89.5955 5.816 88.6248 4.78133 87.3875 4.056C86.1502 3.33067 84.7422 2.968 83.1635 2.968C81.5848 2.968 80.1768 3.33067 78.9395 4.056C77.7022 4.78133 76.7208 5.816 75.9955 7.16C75.2915 8.48267 74.9395 10.04 74.9395 11.832C74.9395 13.6027 75.2915 15.16 75.9955 16.504C76.7208 17.848 77.7022 18.8827 78.9395 19.608C80.1982 20.3333 81.6062 20.696 83.1635 20.696ZM103.584 0.695999L103.232 16.696H100.8L100.448 0.695999H103.584ZM102.144 23.192C101.589 23.192 101.12 23 100.736 22.616C100.352 22.232 100.16 21.7627 100.16 21.208C100.16 20.6533 100.352 20.184 100.736 19.8C101.12 19.416 101.589 19.224 102.144 19.224C102.677 19.224 103.125 19.416 103.488 19.8C103.872 20.184 104.064 20.6533 104.064 21.208C104.064 21.7627 103.872 22.232 103.488 22.616C103.125 23 102.677 23.192 102.144 23.192Z"/>
</mask>
<path d="M17.648 0.695999H19.648V-1.304H17.648V0.695999ZM17.648 23V25H19.648V23H17.648ZM14.736 23H12.736V25H14.736V23ZM14.736 12.888H16.736V10.888H14.736V12.888ZM3.376 12.888V10.888H1.376V12.888H3.376ZM3.376 23V25H5.376V23H3.376ZM0.464 23H-1.536V25H0.464V23ZM0.464 0.695999V-1.304H-1.536V0.695999H0.464ZM3.376 0.695999H5.376V-1.304H3.376V0.695999ZM3.376 10.488H1.376V12.488H3.376V10.488ZM14.736 10.488V12.488H16.736V10.488H14.736ZM14.736 0.695999V-1.304H12.736V0.695999H14.736ZM15.648 0.695999V23H19.648V0.695999H15.648ZM17.648 21H14.736V25H17.648V21ZM16.736 23V12.888H12.736V23H16.736ZM14.736 10.888H3.376V14.888H14.736V10.888ZM1.376 12.888V23H5.376V12.888H1.376ZM3.376 21H0.464V25H3.376V21ZM2.464 23V0.695999H-1.536V23H2.464ZM0.464 2.696H3.376V-1.304H0.464V2.696ZM1.376 0.695999V10.488H5.376V0.695999H1.376ZM3.376 12.488H14.736V8.488H3.376V12.488ZM16.736 10.488V0.695999H12.736V10.488H16.736ZM14.736 2.696H17.648V-1.304H14.736V2.696ZM27.1323 3.064V1.064H25.1323V3.064H27.1323ZM27.1323 10.52H25.1323V12.52H27.1323V10.52ZM35.2603 10.52H37.2603V8.52H35.2603V10.52ZM35.2603 12.92V14.92H37.2603V12.92H35.2603ZM27.1323 12.92V10.92H25.1323V12.92H27.1323ZM27.1323 20.6H25.1323V22.6H27.1323V20.6ZM36.2203 20.6H38.2203V18.6H36.2203V20.6ZM36.2203 23V25H38.2203V23H36.2203ZM24.2203 23H22.2203V25H24.2203V23ZM24.2203 0.664V-1.336H22.2203V0.664H24.2203ZM36.2203 0.664H38.2203V-1.336H36.2203V0.664ZM36.2203 3.064V5.064H38.2203V3.064H36.2203ZM25.1323 3.064V10.52H29.1323V3.064H25.1323ZM27.1323 12.52H35.2603V8.52H27.1323V12.52ZM33.2603 10.52V12.92H37.2603V10.52H33.2603ZM35.2603 10.92H27.1323V14.92H35.2603V10.92ZM25.1323 12.92V20.6H29.1323V12.92H25.1323ZM27.1323 22.6H36.2203V18.6H27.1323V22.6ZM34.2203 20.6V23H38.2203V20.6H34.2203ZM36.2203 21H24.2203V25H36.2203V21ZM26.2203 23V0.664H22.2203V23H26.2203ZM24.2203 2.664H36.2203V-1.336H24.2203V2.664ZM34.2203 0.664V3.064H38.2203V0.664H34.2203ZM36.2203 1.064H27.1323V5.064H36.2203V1.064ZM45.1385 20.632H43.1385V22.632H45.1385V20.632ZM52.9465 20.632H54.9465V18.632H52.9465V20.632ZM52.9465 23V25H54.9465V23H52.9465ZM42.2265 23H40.2265V25H42.2265V23ZM42.2265 0.695999V-1.304H40.2265V0.695999H42.2265ZM45.1385 0.695999H47.1385V-1.304H45.1385V0.695999ZM45.1385 22.632H52.9465V18.632H45.1385V22.632ZM50.9465 20.632V23H54.9465V20.632H50.9465ZM52.9465 21H42.2265V25H52.9465V21ZM44.2265 23V0.695999H40.2265V23H44.2265ZM42.2265 2.696H45.1385V-1.304H42.2265V2.696ZM43.1385 0.695999V20.632H47.1385V0.695999H43.1385ZM60.551 20.632H58.551V22.632H60.551V20.632ZM68.359 20.632H70.359V18.632H68.359V20.632ZM68.359 23V25H70.359V23H68.359ZM57.639 23H55.639V25H57.639V23ZM57.639 0.695999V-1.304H55.639V0.695999H57.639ZM60.551 0.695999H62.551V-1.304H60.551V0.695999ZM60.551 22.632H68.359V18.632H60.551V22.632ZM66.359 20.632V23H70.359V20.632H66.359ZM68.359 21H57.639V25H68.359V21ZM59.639 23V0.695999H55.639V23H59.639ZM57.639 2.696H60.551V-1.304H57.639V2.696ZM58.551 0.695999V20.632H62.551V0.695999H58.551ZM77.4995 21.784L76.5026 23.5178L76.5107 23.5225L76.519 23.5272L77.4995 21.784ZM73.4355 17.72L71.6912 18.6985L71.6983 18.7112L71.7056 18.7238L73.4355 17.72ZM73.4355 5.976L71.7003 4.98144L71.6964 4.98835L73.4355 5.976ZM77.4995 1.912L78.48 3.65515L78.4883 3.65052L78.4964 3.64581L77.4995 1.912ZM88.8595 1.912L87.8626 3.64581L87.8707 3.65052L87.879 3.65515L88.8595 1.912ZM92.8915 5.944L94.6306 4.95635L94.6306 4.95635L92.8915 5.944ZM88.8595 21.784L89.84 23.5272L89.8483 23.5225L89.8564 23.5178L88.8595 21.784ZM87.3555 19.608L86.3569 17.8751L86.3505 17.8788L86.3441 17.8826L87.3555 19.608ZM90.2995 16.504L88.5395 15.5541L88.5336 15.565L88.5278 15.576L90.2995 16.504ZM90.2995 7.16L88.5278 8.08801L88.5367 8.10492L88.5459 8.12166L90.2995 7.16ZM87.3875 4.056L86.3761 5.7814L86.3761 5.7814L87.3875 4.056ZM78.9395 4.056L79.9509 5.7814L79.9509 5.7814L78.9395 4.056ZM75.9955 7.16L74.2354 6.21012L74.23 6.2203L75.9955 7.16ZM75.9955 16.504L74.2238 17.432L74.2296 17.443L74.2355 17.4539L75.9955 16.504ZM78.9395 19.608L77.9281 21.3334L77.9345 21.3372L77.9409 21.3409L78.9395 19.608ZM83.1635 21.224C81.4174 21.224 79.8702 20.8228 78.48 20.0408L76.519 23.5272C78.5421 24.6652 80.7709 25.224 83.1635 25.224V21.224ZM78.4964 20.0502C77.0986 19.2464 75.9947 18.1455 75.1654 16.7162L71.7056 18.7238C72.8816 20.7505 74.4871 22.3589 76.5026 23.5178L78.4964 20.0502ZM75.1798 16.7415C74.3802 15.3161 73.9635 13.6952 73.9635 11.832H69.9635C69.9635 14.3208 70.5282 16.6252 71.6912 18.6985L75.1798 16.7415ZM73.9635 11.832C73.9635 9.96846 74.3802 8.36249 75.1746 6.96365L71.6964 4.98835C70.5281 7.04551 69.9635 9.34353 69.9635 11.832H73.9635ZM75.1707 6.97056C75.9995 5.5245 77.0975 4.43283 78.48 3.65515L76.519 0.168848C74.4882 1.31117 72.8768 2.92883 71.7003 4.98144L75.1707 6.97056ZM78.4964 3.64581C79.8841 2.84792 81.4254 2.44 83.1635 2.44V-1.56C80.7629 -1.56 78.5283 -0.986593 76.5026 0.178186L78.4964 3.64581ZM83.1635 2.44C84.9268 2.44 86.4781 2.84975 87.8626 3.64581L89.8564 0.178186C87.8276 -0.988423 85.5816 -1.56 83.1635 -1.56V2.44ZM87.879 3.65515C89.2639 4.43417 90.3477 5.5148 91.1524 6.93165L94.6306 4.95635C93.4726 2.9172 91.8684 1.30983 89.84 0.168848L87.879 3.65515ZM91.1524 6.93165C91.9451 8.32756 92.3635 9.94342 92.3635 11.832H96.3635C96.3635 9.32592 95.8006 7.01644 94.6306 4.95635L91.1524 6.93165ZM92.3635 11.832C92.3635 13.7206 91.9451 15.3364 91.1524 16.7323L94.6306 18.7076C95.8006 16.6476 96.3635 14.3381 96.3635 11.832H92.3635ZM91.1524 16.7323C90.3456 18.1529 89.2566 19.2486 87.8626 20.0502L89.8564 23.5178C91.8757 22.3567 93.4747 20.7431 94.6306 18.7076L91.1524 16.7323ZM87.879 20.0408C86.4919 20.8211 84.9347 21.224 83.1635 21.224V25.224C85.5736 25.224 87.8137 24.6669 89.84 23.5272L87.879 20.0408ZM83.1635 22.696C85.0449 22.696 86.7968 22.2538 88.3669 21.3334L86.3441 17.8826C85.4395 18.4128 84.3968 18.696 83.1635 18.696V22.696ZM88.3541 21.3409C89.9566 20.4174 91.1993 19.0965 92.0712 17.432L88.5278 15.576C87.9917 16.5995 87.2717 17.348 86.3569 17.8751L88.3541 21.3409ZM92.0595 17.4539C92.9658 15.7746 93.3875 13.8811 93.3875 11.832H89.3875C89.3875 13.3242 89.0838 14.5454 88.5395 15.5541L92.0595 17.4539ZM93.3875 11.832C93.3875 9.767 92.968 7.86658 92.0531 6.19833L88.5459 8.12166C89.0817 9.09875 89.3875 10.313 89.3875 11.832H93.3875ZM92.0712 6.23198C91.2039 4.57633 89.9783 3.25646 88.3989 2.3306L86.3761 5.7814C87.2713 6.30621 87.9871 7.05567 88.5278 8.08801L92.0712 6.23198ZM88.3989 2.3306C86.8246 1.40771 85.0609 0.967999 83.1635 0.967999V4.968C84.4234 4.968 85.4757 5.25362 86.3761 5.7814L88.3989 2.3306ZM83.1635 0.967999C81.2661 0.967999 79.5024 1.40771 77.9281 2.3306L79.9509 5.7814C80.8513 5.25362 81.9036 4.968 83.1635 4.968V0.967999ZM77.9281 2.3306C76.3543 3.25317 75.1229 4.56573 74.2355 6.21013L77.7555 8.10986C78.3188 7.06627 79.0501 6.30949 79.9509 5.7814L77.9281 2.3306ZM74.23 6.2203C73.3446 7.88387 72.9395 9.77621 72.9395 11.832H76.9395C76.9395 10.3038 77.2384 9.08146 77.761 8.0997L74.23 6.2203ZM72.9395 11.832C72.9395 13.8718 73.3466 15.7573 74.2238 17.432L77.7672 15.576C77.2364 14.5627 76.9395 13.3335 76.9395 11.832H72.9395ZM74.2355 17.4539C75.1229 19.0983 76.3543 20.4108 77.9281 21.3334L79.9509 17.8826C79.0501 17.3545 78.3188 16.5977 77.7555 15.5541L74.2355 17.4539ZM77.9409 21.3409C79.5251 22.2538 81.2818 22.696 83.1635 22.696V18.696C81.9306 18.696 80.8712 18.4129 79.9381 17.8751L77.9409 21.3409ZM103.584 0.695999L105.583 0.739988L105.628 -1.304H103.584V0.695999ZM103.232 16.696V18.696H105.188L105.231 16.74L103.232 16.696ZM100.8 16.696L98.8002 16.74L98.8433 18.696H100.8V16.696ZM100.448 0.695999V-1.304H98.4033L98.4482 0.739988L100.448 0.695999ZM100.736 22.616L99.3215 24.0302L99.3215 24.0302L100.736 22.616ZM100.736 19.8L102.15 21.2142L102.15 21.2142L100.736 19.8ZM103.488 19.8L102.034 21.1732L102.053 21.194L102.074 21.2142L103.488 19.8ZM103.488 22.616L102.074 21.2018L102.053 21.222L102.034 21.2428L103.488 22.616ZM101.584 0.65201L101.232 16.652L105.231 16.74L105.583 0.739988L101.584 0.65201ZM103.232 14.696H100.8V18.696H103.232V14.696ZM102.799 16.652L102.447 0.65201L98.4482 0.739988L98.8002 16.74L102.799 16.652ZM100.448 2.696H103.584V-1.304H100.448V2.696ZM102.144 21.192C102.121 21.192 102.111 21.1901 102.112 21.1903C102.113 21.1903 102.115 21.1908 102.119 21.1919C102.123 21.1931 102.128 21.1947 102.133 21.1969C102.138 21.1991 102.144 21.2015 102.148 21.204C102.153 21.2065 102.156 21.2088 102.159 21.2103C102.164 21.2136 102.16 21.2123 102.15 21.2018L99.3215 24.0302C100.09 24.7982 101.071 25.192 102.144 25.192V21.192ZM102.15 21.2018C102.139 21.1913 102.138 21.1881 102.141 21.1931C102.143 21.1953 102.145 21.1989 102.148 21.2036C102.15 21.2082 102.153 21.2134 102.155 21.2187C102.157 21.2241 102.159 21.2289 102.16 21.2328C102.161 21.2367 102.161 21.239 102.161 21.2394C102.162 21.2405 102.16 21.2309 102.16 21.208H98.1598C98.1598 22.2804 98.5536 23.2622 99.3215 24.0302L102.15 21.2018ZM102.16 21.208C102.16 21.1851 102.162 21.1755 102.161 21.1766C102.161 21.177 102.161 21.1793 102.16 21.1832C102.159 21.1871 102.157 21.1919 102.155 21.1973C102.153 21.2026 102.15 21.2078 102.148 21.2124C102.145 21.2171 102.143 21.2207 102.141 21.2229C102.138 21.2279 102.139 21.2247 102.15 21.2142L99.3215 18.3858C98.5536 19.1538 98.1598 20.1356 98.1598 21.208H102.16ZM102.15 21.2142C102.16 21.2037 102.164 21.2024 102.159 21.2057C102.156 21.2072 102.153 21.2095 102.148 21.212C102.144 21.2145 102.138 21.2169 102.133 21.2191C102.128 21.2213 102.123 21.2229 102.119 21.2241C102.115 21.2252 102.113 21.2257 102.112 21.2257C102.111 21.2259 102.121 21.224 102.144 21.224V17.224C101.071 17.224 100.09 17.6178 99.3215 18.3858L102.15 21.2142ZM102.144 21.224C102.157 21.224 102.156 21.2251 102.144 21.2228C102.131 21.2204 102.113 21.2154 102.092 21.2063C102.071 21.1972 102.053 21.187 102.041 21.1784C102.03 21.17 102.027 21.1665 102.034 21.1732L104.942 18.4268C104.197 17.6383 103.221 17.224 102.144 17.224V21.224ZM102.074 21.2142C102.084 21.2247 102.085 21.2279 102.082 21.2229C102.081 21.2207 102.078 21.2171 102.076 21.2124C102.073 21.2078 102.071 21.2026 102.069 21.1973C102.066 21.1919 102.065 21.1871 102.064 21.1832C102.063 21.1793 102.062 21.177 102.062 21.1766C102.062 21.1755 102.064 21.1851 102.064 21.208H106.064C106.064 20.1356 105.67 19.1538 104.902 18.3858L102.074 21.2142ZM102.064 21.208C102.064 21.2309 102.062 21.2405 102.062 21.2394C102.062 21.239 102.063 21.2367 102.064 21.2328C102.065 21.2289 102.066 21.2241 102.069 21.2187C102.071 21.2134 102.073 21.2082 102.076 21.2036C102.078 21.1989 102.081 21.1953 102.082 21.1931C102.085 21.1881 102.084 21.1913 102.074 21.2018L104.902 24.0302C105.67 23.2622 106.064 22.2804 106.064 21.208H102.064ZM102.034 21.2428C102.027 21.2495 102.03 21.246 102.041 21.2376C102.053 21.229 102.071 21.2188 102.092 21.2097C102.113 21.2006 102.131 21.1956 102.144 21.1932C102.156 21.1909 102.157 21.192 102.144 21.192V25.192C103.221 25.192 104.197 24.7777 104.942 23.9892L102.034 21.2428Z" fill="white" mask="url(#path-1-outside-1_1_3)"/>
</svg>
