<?xml version="1.0" encoding="UTF-8"?><svg id="Layer_1" xmlns="http://www.w3.org/2000/svg" viewBox="0 0 1440 1024"><defs><style>.cls-1{letter-spacing:.05em;}.cls-2{fill:#000;font-family:MyriadPro-Regular, 'Myriad Pro';font-size:34px;}.cls-3{letter-spacing:.06em;}.cls-4{fill:#f7d5c7;stroke:#f7d5c7;stroke-miterlimit:10;}.cls-5{letter-spacing:.03em;}.cls-6{opacity:.74;}</style></defs><g class="cls-6"><path class="cls-4" d="M93.54,119.4l-33.74-19.48v-38.97l33.74-19.48,33.74,19.48v38.97l-33.74,19.48ZM63.02,98.05l30.51,17.62,30.51-17.62v-35.24l-30.51-17.62-30.51,17.62v35.24Z"/><rect class="cls-4" x="89.38" y="45.38" width="1.21" height="70.1"/><rect class="cls-4" x="96.48" y="45.38" width="1.21" height="70.1"/><polygon class="cls-4" points="84.69 101.72 70.3 92.75 70.3 89.44 84.22 83.14 84.22 56.08 68.7 64.56 68.7 97.08 66.69 97.08 66.69 63.36 86.24 52.67 86.24 84.44 72.32 90.74 72.32 91.63 85.76 100 84.69 101.72"/><polygon class="cls-4" points="101.3 105.09 101.3 52.66 120.7 63.51 120.7 75.78 118.68 75.78 118.68 64.69 103.32 56.1 103.32 101.87 118.68 94.45 118.68 90.13 111.13 91.1 110.87 89.09 120.7 87.84 120.7 95.71 101.3 105.09"/><rect class="cls-4" x="93.33" y="43.33" width=".4" height="74.2"/></g><text class="cls-2" transform="translate(148.69 93.05)"><tspan class="cls-3" x="0" y="0">R</tspan><tspan class="cls-5" x="20.16" y="0">A</tspan><tspan class="cls-1" x="42.16" y="0">CHEL GLASGOW</tspan></text></svg>